<?xml version="1.0" encoding="utf-8"?>
<!-- Generator: Adobe Illustrator 18.0.0, SVG Export Plug-In . SVG Version: 6.00 Build 0)  -->
<!DOCTYPE svg PUBLIC "-//W3C//DTD SVG 1.1//EN" "http://www.w3.org/Graphics/SVG/1.1/DTD/svg11.dtd">
<svg version="1.1"
	 id="svg2" xmlns:rdf="http://www.w3.org/1999/02/22-rdf-syntax-ns#" xmlns:dc="http://purl.org/dc/elements/1.1/" xmlns:cc="http://creativecommons.org/ns#" xmlns:svg="http://www.w3.org/2000/svg"
	 xmlns="http://www.w3.org/2000/svg" xmlns:xlink="http://www.w3.org/1999/xlink" x="0px" y="0px" viewBox="0 0 302 348.4"
	 enable-background="new 0 0 302 348.4" xml:space="preserve">
<path id="path8" fill="none" stroke="#000000" stroke-width="2" stroke-linecap="square" d="M151,174.2l-50,86.6"/>
<path id="path10" fill="none" stroke="#000000" stroke-width="2" stroke-linecap="square" d="M101,260.8h100"/>
<path id="path12" fill="none" stroke="#000000" stroke-width="2" stroke-linecap="square" d="M201,260.8h100"/>
<path id="path14" fill="none" stroke="#000000" stroke-width="2" stroke-linecap="square" d="M301,260.8l-50-86.6"/>
<path id="path16" fill="none" stroke="#000000" stroke-width="2" stroke-linecap="square" d="M251,174.2l-50-86.6"/>
<path id="path18" fill="none" stroke="#000000" stroke-width="2" stroke-linecap="square" d="M201,87.6l-50,86.6"/>
<path id="path20" fill="none" stroke="#000000" stroke-width="2" stroke-linecap="square" d="M151,174.2l50,86.6"/>
<path id="path22" fill="none" stroke="#000000" stroke-width="2" stroke-linecap="square" d="M201,260.8l50-86.6"/>
<path id="path24" fill="none" stroke="#000000" stroke-width="2" stroke-linecap="square" d="M251,174.2l50-86.6"/>
<path id="path26" fill="none" stroke="#000000" stroke-width="2" stroke-linecap="square" d="M301,87.6H201"/>
<path id="path28" fill="none" stroke="#000000" stroke-width="2" stroke-linecap="square" d="M201,87.6H101"/>
<path id="path30" fill="none" stroke="#000000" stroke-width="2" stroke-linecap="square" d="M101,87.6l50,86.6"/>
<path id="path32" fill="none" stroke="#000000" stroke-width="2" stroke-linecap="square" d="M151,174.2h100"/>
<path id="path34" fill="none" stroke="#000000" stroke-width="2" stroke-linecap="square" d="M251,174.2l-50-86.6"/>
<path id="path36" fill="none" stroke="#000000" stroke-width="2" stroke-linecap="square" d="M201,87.6L151,1"/>
<path id="path38" fill="none" stroke="#000000" stroke-width="2" stroke-linecap="square" d="M151,1l-50,86.6"/>
<path id="path40" fill="none" stroke="#000000" stroke-width="2" stroke-linecap="square" d="M101,87.6l-50,86.6"/>
<path id="path42" fill="none" stroke="#000000" stroke-width="2" stroke-linecap="square" d="M51,174.2h100"/>
<path id="path44" fill="none" stroke="#000000" stroke-width="2" stroke-linecap="square" d="M151,174.2l50-86.6"/>
<path id="path46" fill="none" stroke="#000000" stroke-width="2" stroke-linecap="square" d="M201,87.6H101"/>
<path id="path48" fill="none" stroke="#000000" stroke-width="2" stroke-linecap="square" d="M101,87.6H1"/>
<path id="path50" fill="none" stroke="#000000" stroke-width="2" stroke-linecap="square" d="M1,87.6l50,86.6"/>
<path id="path52" fill="none" stroke="#000000" stroke-width="2" stroke-linecap="square" d="M51,174.2l50,86.6"/>
<path id="path54" fill="none" stroke="#000000" stroke-width="2" stroke-linecap="square" d="M101,260.8l50-86.6"/>
<path id="path56" fill="none" stroke="#000000" stroke-width="2" stroke-linecap="square" d="M151,174.2l-50-86.6"/>
<path id="path58" fill="none" stroke="#000000" stroke-width="2" stroke-linecap="square" d="M101,87.6l-50,86.6"/>
<path id="path60" fill="none" stroke="#000000" stroke-width="2" stroke-linecap="square" d="M51,174.2L1,260.8"/>
<path id="path62" fill="none" stroke="#000000" stroke-width="2" stroke-linecap="square" d="M1,260.8h100"/>
<path id="path64" fill="none" stroke="#000000" stroke-width="2" stroke-linecap="square" d="M101,260.8h100"/>
<path id="path66" fill="none" stroke="#000000" stroke-width="2" stroke-linecap="square" d="M201,260.8l-50-86.6"/>
<path id="path68" fill="none" stroke="#000000" stroke-width="2" stroke-linecap="square" d="M151,174.2H51"/>
<path id="path70" fill="none" stroke="#000000" stroke-width="2" stroke-linecap="square" d="M51,174.2l50,86.6"/>
<path id="path72" fill="none" stroke="#000000" stroke-width="2" stroke-linecap="square" d="M101,260.8l50,86.6"/>
<path id="path74" fill="none" stroke="#000000" stroke-width="2" stroke-linecap="square" d="M151,347.4l50-86.6"/>
<path id="path76" fill="none" stroke="#000000" stroke-width="2" stroke-linecap="square" d="M201,260.8l50-86.6"/>
<path id="path78" fill="none" stroke="#000000" stroke-width="2" stroke-linecap="square" d="M251,174.2H151"/>
</svg>
