<?xml version="1.0" encoding="utf-8"?>
<!-- Generator: Adobe Illustrator 18.0.0, SVG Export Plug-In . SVG Version: 6.00 Build 0)  -->
<!DOCTYPE svg PUBLIC "-//W3C//DTD SVG 1.1//EN" "http://www.w3.org/Graphics/SVG/1.1/DTD/svg11.dtd">
<svg version="1.1"
	 id="svg2" xmlns:rdf="http://www.w3.org/1999/02/22-rdf-syntax-ns#" xmlns:dc="http://purl.org/dc/elements/1.1/" xmlns:cc="http://creativecommons.org/ns#" xmlns:svg="http://www.w3.org/2000/svg"
	 xmlns="http://www.w3.org/2000/svg" xmlns:xlink="http://www.w3.org/1999/xlink" x="0px" y="0px" viewBox="0 0 214.9 223"
	 enable-background="new 0 0 214.9 223" xml:space="preserve">
<path id="path8" fill="none" stroke="#000000" stroke-width="2" stroke-linecap="square" d="M112,112.2L84.2,70.5"/>
<path id="path10" fill="none" stroke="#000000" stroke-width="2" stroke-linecap="square" d="M84.2,70.5L42.7,98.4"/>
<path id="path12" fill="none" stroke="#000000" stroke-width="2" stroke-linecap="square" d="M42.7,98.4L1,126.1"/>
<path id="path14" fill="none" stroke="#000000" stroke-width="2" stroke-linecap="square" d="M1,126.1l27.8,41.6"/>
<path id="path16" fill="none" stroke="#000000" stroke-width="2" stroke-linecap="square" d="M28.8,167.7l27.8,41.7"/>
<path id="path18" fill="none" stroke="#000000" stroke-width="2" stroke-linecap="square" d="M56.6,209.4l41.6-27.8"/>
<path id="path20" fill="none" stroke="#000000" stroke-width="2" stroke-linecap="square" d="M98.2,181.5l41.6-27.7"/>
<path id="path22" fill="none" stroke="#000000" stroke-width="2" stroke-linecap="square" d="M139.8,153.9L112,112.2"/>
<path id="path24" fill="none" stroke="#000000" stroke-width="2" stroke-linecap="square" d="M112,112.2l-48.2,13.6"/>
<path id="path26" fill="none" stroke="#000000" stroke-width="2" stroke-linecap="square" d="M63.8,125.8l13.6,48.1"/>
<path id="path28" fill="none" stroke="#000000" stroke-width="2" stroke-linecap="square" d="M77.5,173.9L91,222"/>
<path id="path30" fill="none" stroke="#000000" stroke-width="2" stroke-linecap="square" d="M91,222l48.1-13.5"/>
<path id="path32" fill="none" stroke="#000000" stroke-width="2" stroke-linecap="square" d="M139.1,208.5l48.2-13.6"/>
<path id="path34" fill="none" stroke="#000000" stroke-width="2" stroke-linecap="square" d="M187.2,194.9l-13.6-48.2"/>
<path id="path36" fill="none" stroke="#000000" stroke-width="2" stroke-linecap="square" d="M173.7,146.7l-13.5-48.1"/>
<path id="path38" fill="none" stroke="#000000" stroke-width="2" stroke-linecap="square" d="M160.2,98.6L112,112.2"/>
<path id="path40" fill="none" stroke="#000000" stroke-width="2" stroke-linecap="square" d="M112,112.2l-2,50"/>
<path id="path42" fill="none" stroke="#000000" stroke-width="2" stroke-linecap="square" d="M110,162.2l49.9,2"/>
<path id="path44" fill="none" stroke="#000000" stroke-width="2" stroke-linecap="square" d="M159.9,164.2l50,2"/>
<path id="path46" fill="none" stroke="#000000" stroke-width="2" stroke-linecap="square" d="M209.9,166.2l2-50"/>
<path id="path48" fill="none" stroke="#000000" stroke-width="2" stroke-linecap="square" d="M211.9,116.2l2-49.9"/>
<path id="path50" fill="none" stroke="#000000" stroke-width="2" stroke-linecap="square" d="M213.9,66.2l-49.9-2"/>
<path id="path52" fill="none" stroke="#000000" stroke-width="2" stroke-linecap="square" d="M164,64.3L114,62.2"/>
<path id="path54" fill="none" stroke="#000000" stroke-width="2" stroke-linecap="square" d="M114,62.2l-2,50"/>
<path id="path56" fill="none" stroke="#000000" stroke-width="2" stroke-linecap="square" d="M112,112.2l47,17.3"/>
<path id="path58" fill="none" stroke="#000000" stroke-width="2" stroke-linecap="square" d="M159,129.5l17.3-46.9"/>
<path id="path60" fill="none" stroke="#000000" stroke-width="2" stroke-linecap="square" d="M176.2,82.6l17.4-46.9"/>
<path id="path62" fill="none" stroke="#000000" stroke-width="2" stroke-linecap="square" d="M193.6,35.7l-47-17.3"/>
<path id="path64" fill="none" stroke="#000000" stroke-width="2" stroke-linecap="square" d="M146.7,18.4L99.8,1"/>
<path id="path66" fill="none" stroke="#000000" stroke-width="2" stroke-linecap="square" d="M99.8,1L82.4,48"/>
<path id="path68" fill="none" stroke="#000000" stroke-width="2" stroke-linecap="square" d="M82.4,48L65,94.9"/>
<path id="path70" fill="none" stroke="#000000" stroke-width="2" stroke-linecap="square" d="M65,94.9l47,17.3"/>
<path id="path72" fill="none" stroke="#000000" stroke-width="2" stroke-linecap="square" d="M112,112.2L143,73"/>
<path id="path74" fill="none" stroke="#000000" stroke-width="2" stroke-linecap="square" d="M143,73l-39.2-31"/>
<path id="path76" fill="none" stroke="#000000" stroke-width="2" stroke-linecap="square" d="M103.7,42L64.5,11"/>
<path id="path78" fill="none" stroke="#000000" stroke-width="2" stroke-linecap="square" d="M64.5,11l-31,39.2"/>
<path id="path80" fill="none" stroke="#000000" stroke-width="2" stroke-linecap="square" d="M33.5,50.2l-31,39.2"/>
<path id="path82" fill="none" stroke="#000000" stroke-width="2" stroke-linecap="square" d="M2.5,89.5l39.2,31"/>
<path id="path84" fill="none" stroke="#000000" stroke-width="2" stroke-linecap="square" d="M41.8,120.5l39.2,31"/>
<path id="path86" fill="none" stroke="#000000" stroke-width="2" stroke-linecap="square" d="M81,151.4l31-39.2"/>
</svg>
