<?xml version="1.0" encoding="utf-8"?>
<!-- Generator: Adobe Illustrator 18.0.0, SVG Export Plug-In . SVG Version: 6.00 Build 0)  -->
<!DOCTYPE svg PUBLIC "-//W3C//DTD SVG 1.1//EN" "http://www.w3.org/Graphics/SVG/1.1/DTD/svg11.dtd">
<svg version="1.1"
	 id="svg2" xmlns:rdf="http://www.w3.org/1999/02/22-rdf-syntax-ns#" xmlns:dc="http://purl.org/dc/elements/1.1/" xmlns:cc="http://creativecommons.org/ns#" xmlns:svg="http://www.w3.org/2000/svg"
	 xmlns="http://www.w3.org/2000/svg" xmlns:xlink="http://www.w3.org/1999/xlink" x="0px" y="0px" viewBox="0 0 240 252"
	 enable-background="new 0 0 240 252" xml:space="preserve">
<g id="g3018" transform="translate(11.556628,8.897407)">
	<path id="path8" fill="none" stroke="#000000" stroke-width="2" stroke-linecap="square" d="M108.6,129.3l-22.9,71.4"/>
	<path id="path10" fill="none" stroke="#000000" stroke-width="2" stroke-linecap="square" d="M85.7,200.8l-50.4-55.5"/>
	<path id="path12" fill="none" stroke="#000000" stroke-width="2" stroke-linecap="square" d="M35.3,145.2l-50.4-55.6"/>
	<path id="path14" fill="none" stroke="#000000" stroke-width="2" stroke-linecap="square" d="M-15.1,89.6l73.3-15.8"/>
	<path id="path16" fill="none" stroke="#000000" stroke-width="2" stroke-linecap="square" d="M58.2,73.8l73.3-15.9"/>
	<path id="path18" fill="none" stroke="#000000" stroke-width="2" stroke-linecap="square" d="M131.5,57.9l-22.9,71.4"/>
	<path id="path20" fill="none" stroke="#000000" stroke-width="2" stroke-linecap="square" d="M108.6,129.3L169.1,85"/>
	<path id="path22" fill="none" stroke="#000000" stroke-width="2" stroke-linecap="square" d="M169.1,85l8.1,74.6"/>
	<path id="path24" fill="none" stroke="#000000" stroke-width="2" stroke-linecap="square" d="M177.2,159.6l8.1,74.5"/>
	<path id="path26" fill="none" stroke="#000000" stroke-width="2" stroke-linecap="square" d="M185.3,234.1l-68.6-30.2"/>
	<path id="path28" fill="none" stroke="#000000" stroke-width="2" stroke-linecap="square" d="M116.7,203.9l-68.6-30.3"/>
	<path id="path30" fill="none" stroke="#000000" stroke-width="2" stroke-linecap="square" d="M48.1,173.6l60.5-44.3"/>
	<path id="path32" fill="none" stroke="#000000" stroke-width="2" stroke-linecap="square" d="M108.6,129.3l-75,0.3"/>
	<path id="path34" fill="none" stroke="#000000" stroke-width="2" stroke-linecap="square" d="M33.6,129.6l37.2-65.1"/>
	<path id="path36" fill="none" stroke="#000000" stroke-width="2" stroke-linecap="square" d="M70.8,64.5l37.2-65"/>
	<path id="path38" fill="none" stroke="#000000" stroke-width="2" stroke-linecap="square" d="M108.1-0.5l37.7,64.7"/>
	<path id="path40" fill="none" stroke="#000000" stroke-width="2" stroke-linecap="square" d="M145.8,64.2l37.8,64.8"/>
	<path id="path42" fill="none" stroke="#000000" stroke-width="2" stroke-linecap="square" d="M183.6,129.1l-75,0.3"/>
	<path id="path44" fill="none" stroke="#000000" stroke-width="2" stroke-linecap="square" d="M108.6,129.3l60.9,43.9"/>
	<path id="path46" fill="none" stroke="#000000" stroke-width="2" stroke-linecap="square" d="M169.5,173.2l-68.4,30.7"/>
	<path id="path48" fill="none" stroke="#000000" stroke-width="2" stroke-linecap="square" d="M101.1,203.9l-68.4,30.8"/>
	<path id="path50" fill="none" stroke="#000000" stroke-width="2" stroke-linecap="square" d="M32.7,234.7l7.5-74.7"/>
	<path id="path52" fill="none" stroke="#000000" stroke-width="2" stroke-linecap="square" d="M40.2,160l7.6-74.6"/>
	<path id="path54" fill="none" stroke="#000000" stroke-width="2" stroke-linecap="square" d="M47.7,85.4l60.9,43.9"/>
	<path id="path56" fill="none" stroke="#000000" stroke-width="2" stroke-linecap="square" d="M108.6,129.3L85.2,58.1"/>
	<path id="path58" fill="none" stroke="#000000" stroke-width="2" stroke-linecap="square" d="M85.2,58.1l73.5,15.3"/>
	<path id="path60" fill="none" stroke="#000000" stroke-width="2" stroke-linecap="square" d="M158.6,73.4L232,88.7"/>
	<path id="path62" fill="none" stroke="#000000" stroke-width="2" stroke-linecap="square" d="M232,88.7l-49.9,55.9"/>
	<path id="path64" fill="none" stroke="#000000" stroke-width="2" stroke-linecap="square" d="M182.1,144.6l-50,55.9"/>
	<path id="path66" fill="none" stroke="#000000" stroke-width="2" stroke-linecap="square" d="M132.1,200.6l-23.4-71.2"/>
</g>
</svg>
